<?xml version="1.0" standalone="no"?>
<!DOCTYPE svg PUBLIC "-//W3C//DTD SVG 20010904//EN"
 "http://www.w3.org/TR/2001/REC-SVG-20010904/DTD/svg10.dtd">
<svg version="1.0" xmlns="http://www.w3.org/2000/svg"
 width="4395.000000pt" height="2037.000000pt" viewBox="0 0 4395.000000 2037.000000"
 preserveAspectRatio="xMidYMid meet">

<g transform="translate(0.000000,2037.000000) scale(0.100000,-0.100000)"
fill="#000000" stroke="none">
<path d="M13760 13560 l0 -1780 -3280 0 -3280 0 0 -75 0 -75 187 0 187 0 -89
-58 c-200 -129 -320 -296 -382 -528 -22 -84 -26 -120 -27 -244 0 -129 3 -156
27 -244 61 -220 183 -374 401 -504 162 -97 276 -128 991 -271 501 -99 601
-122 662 -150 97 -45 107 -58 98 -118 -8 -55 -36 -99 -74 -116 -19 -9 -261
-13 -906 -17 -1015 -6 -946 1 -1046 -99 -75 -76 -99 -146 -106 -317 -6 -138 9
-214 52 -254 18 -17 25 -34 25 -62 l0 -38 3280 0 3280 0 0 -1360 0 -1360 8445
0 8445 0 0 1360 0 1360 3155 0 3155 0 0 1585 0 1585 -3155 0 -3155 0 0 1780 0
1780 -8445 0 -8445 0 0 -1780z m-3770 -1936 c0 -3 -9 -18 -19 -33 -39 -54 -53
-143 -49 -311 3 -175 14 -207 78 -245 33 -19 53 -20 458 -23 l422 -3 0 -1093
c0 -601 3 -1108 6 -1125 l7 -31 -684 0 -684 1 57 30 c132 72 253 201 324 344
90 183 114 437 61 637 -62 236 -184 372 -439 493 -162 77 -240 96 -1139 280
-395 80 -479 106 -505 156 -21 42 -19 167 5 223 38 87 -32 80 901 86 746 5
830 7 876 23 165 56 230 189 222 462 l-3 135 53 0 c28 0 52 -3 52 -6z m3700
-36 c-29 -42 -1042 -2590 -1076 -2704 -9 -31 -14 -71 -12 -90 l4 -34 -488 0
-488 0 24 38 c57 86 56 69 56 1186 l0 1026 346 0 c394 0 446 6 526 65 103 75
131 165 126 397 l-3 158 507 0 508 0 -30 -42z m990 33 c0 -18 -18 -21 -30 -6
-10 13 -9 15 9 15 11 0 21 -4 21 -9z m391 -9 c13 -10 41 -26 61 -35 51 -24 52
-30 12 -52 -30 -16 -37 -17 -62 -4 -27 14 -42 24 -67 47 -7 6 -18 12 -24 12
-6 0 -11 5 -11 10 0 6 -6 10 -12 10 -7 0 -22 7 -32 15 -18 14 -14 15 46 15 48
0 72 -5 89 -18z m742 -32 c-14 -27 -30 -50 -36 -50 -5 0 -44 16 -86 36 -81 38
-107 49 -131 57 -8 3 51 6 132 6 l147 1 -26 -50z m9007 48 c0 -2 -7 -23 -14
-48 -11 -33 -15 -38 -15 -20 -1 14 -4 35 -7 48 -5 18 -2 22 15 22 11 0 21 -1
21 -2z m820 -44 c-42 -67 -53 -129 -49 -285 4 -127 6 -138 31 -176 17 -25 45
-49 75 -64 l48 -24 608 3 609 4 -38 -59 c-20 -32 -58 -91 -83 -131 l-45 -74
-50 6 c-96 10 -171 23 -199 34 -16 7 -47 12 -71 12 -23 0 -46 4 -51 9 -10 9
-38 13 -165 26 -30 3 -64 10 -75 15 -11 5 -42 11 -70 14 -81 8 -158 22 -188
34 -16 7 -47 12 -71 12 -23 0 -46 4 -51 9 -6 5 -32 12 -60 15 -27 2 -78 8
-112 12 l-62 6 -3 307 c-2 168 -7 314 -12 324 -7 15 -2 17 53 17 l61 0 -30
-46z m2719 15 c-12 -17 -30 -58 -40 -91 -18 -55 -19 -100 -19 -560 0 -472 -1
-500 -17 -493 -63 26 -105 31 -161 19 -24 -5 -38 -2 -52 11 -11 10 -17 22 -13
27 3 6 -1 14 -8 19 -20 13 -97 11 -101 -2 -3 -9 -9 -9 -26 0 -53 27 -62 31
-74 31 -8 0 -18 10 -23 23 -9 19 -20 23 -78 27 l-68 5 260 424 c276 449 285
467 263 551 l-10 40 95 0 94 0 -22 -31z m2376 1 c-45 -87 -45 -79 -45 -1465 0
-778 4 -1323 9 -1343 l10 -32 -41 0 c-35 0 -39 2 -32 18 4 9 10 84 12 166 4
168 -7 250 -44 308 -61 96 -138 118 -429 118 l-200 0 4 92 c1 51 7 101 12 110
14 26 11 212 -3 226 -7 7 -22 12 -34 12 -13 0 -26 5 -29 10 -3 6 -19 10 -35
10 -16 0 -32 5 -35 10 -4 7 60 10 184 10 228 0 281 10 331 60 51 51 63 115 57
310 -5 174 -15 220 -61 266 -58 58 -59 58 -673 62 l-563 3 0 224 0 224 663 4
c740 4 723 2 793 72 59 60 67 102 62 353 l-3 202 53 0 53 0 -16 -30z m2005 15
c-6 -8 -19 -36 -28 -62 -15 -42 -17 -132 -22 -767 l-5 -718 -511 668 c-282
368 -550 720 -598 782 l-86 112 631 0 c551 0 630 -2 619 -15z m1757 -16 c-119
-78 -208 -216 -254 -390 l-27 -104 -4 -888 -3 -889 -39 36 c-54 48 -101 71
-194 91 -91 20 -169 16 -270 -15 -76 -24 -161 -95 -195 -162 l-21 -42 -2 1179
c-2 649 -7 1188 -12 1198 -8 16 21 17 530 17 l537 0 -46 -31z m2303 -360 l0
-391 -27 7 c-99 24 -161 29 -383 30 -237 0 -248 -1 -353 -28 -134 -35 -181
-55 -268 -113 -182 -121 -275 -308 -300 -604 -12 -143 -7 -1309 5 -1352 l8
-28 -302 0 -302 0 6 31 c3 17 6 361 6 765 l0 733 253 3 254 3 36 28 c63 48 71
74 75 238 4 166 -5 213 -49 264 -50 56 -97 65 -352 65 l-219 0 4 90 c2 55 8
94 16 102 10 10 79 14 275 18 223 4 267 8 294 22 57 32 72 65 94 215 22 147
20 198 -10 257 l-19 36 629 0 629 0 0 -391z m-27066 375 c14 -5 16 -29 16
-158 0 -146 -1 -155 -27 -206 -23 -44 -37 -59 -78 -80 l-49 -25 -836 -5 -835
-5 -54 -31 c-40 -22 -62 -43 -82 -80 -75 -133 -76 -322 -2 -422 27 -36 111
-82 194 -106 29 -9 297 -65 594 -126 297 -61 569 -118 605 -127 94 -23 254
-80 324 -115 260 -130 365 -315 353 -618 -6 -142 -22 -215 -72 -315 -98 -199
-261 -315 -531 -376 -98 -22 -108 -23 -1032 -26 -705 -3 -937 -1 -948 8 -17
14 -20 232 -4 290 16 56 51 101 100 129 l45 25 890 5 c830 5 893 6 930 23 87
39 145 123 152 221 10 115 -14 169 -98 221 -90 57 -165 77 -764 196 -330 66
-637 131 -682 145 -324 98 -517 258 -600 496 -21 61 -26 97 -30 213 -4 119 -2
153 16 230 53 222 195 402 400 504 116 59 223 89 401 115 44 6 1688 6 1704 0z
m7991 -32 c468 -90 700 -324 746 -750 24 -222 -19 -454 -112 -608 -101 -166
-283 -294 -504 -355 -44 -11 -81 -23 -83 -24 -2 -2 161 -220 363 -484 201
-265 373 -494 382 -509 9 -16 14 -36 10 -45 -6 -15 -32 -17 -260 -17 -248 0
-255 1 -288 23 -19 13 -194 233 -404 507 l-370 485 -378 3 -377 2 0 -427 c0
-282 -4 -442 -11 -468 -16 -56 -67 -101 -131 -115 -32 -7 -121 -10 -223 -8
l-170 3 -3 1330 c-3 1449 -5 1380 52 1434 55 52 43 51 876 47 740 -3 780 -4
885 -24z m4123 12 l22 -15 0 -1379 c0 -1240 -2 -1380 -16 -1394 -13 -13 -46
-16 -210 -16 -230 0 -257 7 -273 67 -15 52 -15 2623 -1 2674 20 70 44 77 280
78 144 1 180 -2 198 -15z m3560 0 l22 -15 0 -1379 c0 -1240 -2 -1380 -16
-1394 -13 -13 -46 -16 -210 -16 -230 0 -257 7 -273 67 -15 52 -15 2623 -1
2674 20 70 44 77 280 78 144 1 180 -2 198 -15z m5929 1 c12 -8 349 -443 750
-967 l728 -952 5 900 c4 663 9 908 18 935 14 41 45 73 85 88 41 16 399 15 415
-1 16 -16 18 -2712 2 -2753 -18 -48 -57 -55 -296 -55 l-217 0 -31 34 c-17 18
-350 447 -741 953 l-710 919 -5 -905 c-4 -691 -8 -913 -17 -934 -8 -17 -29
-35 -55 -47 -38 -17 -67 -20 -228 -20 -132 0 -190 4 -198 12 -16 16 -17 2643
-1 2702 12 44 57 92 92 99 12 2 103 5 202 6 146 1 185 -2 202 -14z m4039 -4
c77 -35 85 -69 61 -256 l-12 -90 -245 -6 c-270 -7 -326 -17 -372 -66 -41 -45
-48 -84 -48 -259 l0 -164 293 0 c215 0 296 -3 305 -12 8 -8 12 -57 12 -155 0
-130 -2 -143 -19 -153 -12 -6 -122 -10 -288 -10 -151 0 -275 -4 -283 -10 -13
-8 -16 -112 -20 -805 -4 -693 -7 -797 -20 -805 -24 -15 -353 -13 -373 3 -16
11 -17 85 -15 1172 l3 1160 24 70 c37 110 69 165 135 231 94 93 223 147 396
164 41 4 154 8 250 8 151 1 181 -1 216 -17z m-22800 -27 c4 -21 4 -92 1 -160
-6 -150 -25 -195 -97 -231 -44 -23 -48 -23 -472 -23 l-427 0 -3 -1107 c-3
-1225 1 -1148 -67 -1206 -49 -41 -93 -48 -298 -45 l-188 3 -5 1175 -5 1175
-477 3 -478 2 -6 26 c-4 14 -4 85 -2 157 6 177 25 215 123 254 22 8 333 12
1212 12 l1182 1 7 -36z m12080 0 c4 -21 4 -92 1 -160 -6 -150 -25 -195 -97
-231 -44 -23 -48 -23 -472 -23 l-427 0 -3 -1107 c-3 -1225 1 -1148 -67 -1206
-49 -41 -93 -48 -298 -45 l-188 3 -5 1175 -5 1175 -477 3 -478 2 -6 26 c-4 14
-4 85 -2 157 6 177 25 215 123 254 22 8 333 12 1212 12 l1182 1 7 -36z m3405
15 c15 -15 19 -28 14 -46 -3 -14 -309 -519 -679 -1122 -370 -603 -678 -1107
-685 -1120 -7 -13 -9 -27 -4 -32 4 -4 308 -10 673 -11 l666 -3 49 -25 c40 -20
55 -36 75 -75 23 -46 24 -59 22 -183 -1 -74 -7 -143 -13 -153 -9 -18 -43 -19
-1199 -19 -782 0 -1198 3 -1215 10 -22 8 -26 15 -23 38 2 15 325 536 718 1157
392 622 715 1140 718 1153 3 14 -1 22 -9 22 -8 0 -327 0 -709 0 l-696 0 -23
21 c-22 21 -23 27 -19 148 3 137 15 173 70 214 61 46 62 46 1186 46 l1062 1
21 -21z m-7689 -5 c320 -40 576 -117 649 -195 29 -31 29 -32 29 -153 0 -141
-10 -187 -48 -217 -40 -32 -110 -22 -357 49 -217 62 -406 106 -510 117 -76 9
-260 -9 -362 -35 -104 -27 -212 -79 -267 -130 -50 -47 -120 -178 -156 -295
-35 -117 -52 -562 -30 -784 39 -381 207 -610 500 -686 101 -26 321 -31 460
-11 143 21 305 62 480 121 149 50 204 56 243 25 37 -30 47 -77 47 -229 l0
-134 -36 -33 c-90 -86 -342 -167 -634 -206 -123 -16 -503 -15 -645 1 -204 24
-352 82 -474 184 -69 58 -214 246 -277 358 -89 162 -154 355 -186 559 -17 110
-17 504 0 625 43 303 148 556 303 729 167 188 434 310 764 349 88 11 395 5
507 -9z m10138 -5 c8 -14 10 -81 8 -200 -3 -170 -4 -180 -26 -201 l-23 -23
-734 -3 -735 -3 0 -364 0 -365 625 0 c612 0 625 0 645 -20 18 -18 20 -33 20
-194 0 -145 -3 -177 -16 -190 -14 -14 -86 -16 -645 -16 l-629 0 0 -380 0 -380
708 0 c653 0 710 -1 742 -18 54 -27 62 -53 63 -231 2 -121 -1 -162 -12 -174
-12 -16 -93 -17 -1022 -17 -996 0 -1009 0 -1029 20 -20 20 -20 33 -20 1305 0
877 3 1300 11 1334 13 62 40 98 93 122 39 18 88 19 1003 19 l962 0 11 -21z
m-16060 2 l75 -6 27 -50 c49 -93 1052 -2639 1056 -2682 l4 -43 -266 0 c-264 0
-267 0 -289 23 -12 12 -65 131 -117 264 l-95 242 -660 3 c-430 2 -664 0 -672
-7 -6 -5 -55 -119 -108 -253 -69 -171 -104 -248 -120 -258 -18 -12 -68 -14
-286 -12 l-264 3 2 25 c1 28 1037 2651 1060 2687 22 34 62 55 117 63 62 9 431
10 536 1z m465 -397 c63 -64 115 -121 115 -128 0 -7 28 -42 63 -78 34 -35 103
-108 152 -162 81 -87 118 -120 219 -194 17 -12 38 -28 46 -35 9 -6 33 -25 55
-41 22 -17 42 -33 45 -36 3 -4 25 -20 50 -37 25 -17 60 -44 77 -59 l33 -29 2
-808 c3 -776 2 -807 -15 -807 -15 0 -17 5 -12 30 4 17 1 54 -6 83 -9 41 -928
2381 -946 2410 -15 25 21 -7 122 -109z m9862 54 c-3 -8 -6 -5 -6 6 -1 11 2 17
5 13 3 -3 4 -12 1 -19z m11787 -478 c155 -13 193 -25 223 -69 19 -28 23 -46
22 -110 0 -42 -4 -98 -7 -126 l-7 -50 -290 -6 c-211 -4 -301 -9 -330 -20 -55
-19 -120 -85 -134 -134 -7 -27 -11 -255 -11 -712 0 -412 -4 -682 -10 -697
l-10 -26 -194 0 c-154 0 -196 3 -205 14 -9 11 -11 190 -9 718 4 683 4 705 25
779 48 170 136 285 271 353 167 84 367 110 666 86z m-16994 -374 c47 -39 87
-73 90 -76 3 -3 21 -17 40 -30 19 -14 46 -35 60 -47 14 -13 30 -23 37 -23 7 0
13 -4 13 -10 0 -5 5 -10 11 -10 6 0 40 -20 76 -45 35 -25 66 -45 69 -45 3 0
42 -25 86 -55 44 -30 82 -55 84 -55 8 0 149 -95 152 -102 2 -5 8 -8 13 -8 11
0 153 -92 157 -102 2 -5 8 -8 14 -8 5 0 29 -13 53 -30 24 -16 49 -30 55 -30 5
0 28 -11 50 -25 22 -14 44 -25 49 -25 5 0 29 -10 53 -21 158 -78 190 -99 149
-99 -11 0 -101 -27 -198 -59 -98 -33 -225 -69 -283 -81 -197 -41 -482 -41
-592 0 -106 39 -206 114 -170 127 6 3 12 13 12 23 0 10 5 22 10 25 6 3 10 15
10 26 0 10 5 19 10 19 6 0 10 8 10 18 0 9 16 49 35 87 19 39 35 76 35 83 0 6
5 12 10 12 6 0 10 8 10 18 0 9 12 40 25 67 30 61 31 85 5 92 -11 3 -20 9 -20
14 0 5 -5 9 -11 9 -7 0 -34 16 -60 35 -27 19 -54 35 -59 35 -6 0 -10 5 -10 10
0 6 -7 10 -15 10 -8 0 -15 5 -15 10 0 6 -5 10 -11 10 -7 0 -34 16 -60 35 -27
19 -54 35 -59 35 -6 0 -10 5 -10 10 0 6 -7 10 -15 10 -13 0 -15 21 -15 125 0
148 -6 145 120 41z m12510 -851 c310 -401 570 -738 578 -747 14 -17 -16 -18
-613 -18 -546 0 -626 2 -615 14 6 8 19 39 28 68 13 46 16 147 19 752 4 673 5
698 22 680 10 -10 271 -347 581 -749z m4720 -17 l0 -748 -329 0 -330 0 10 32
c5 19 9 320 9 705 0 401 4 682 10 697 21 56 67 64 382 62 l248 -1 0 -747z
m-15640 -88 c0 -5 8 -10 19 -10 10 0 23 -6 29 -12 6 -8 12 -120 15 -273 3
-202 8 -271 21 -310 8 -27 16 -51 16 -52 0 -2 -81 -3 -181 -3 l-181 0 83 43
c47 24 105 64 134 92 44 43 53 58 64 112 19 89 10 291 -16 366 -11 31 -16 57
-11 57 4 0 8 -4 8 -10z m12867 -118 c80 -42 123 -129 123 -252 0 -190 -96
-286 -285 -284 -85 1 -136 16 -181 57 -57 49 -77 99 -82 202 -8 163 37 248
154 291 60 22 217 14 271 -14z m-11872 -257 c33 -39 67 -77 75 -85 17 -17 98
-106 148 -163 l32 -37 -211 0 -211 0 7 23 c5 12 10 112 12 222 l5 199 41 -45
c23 -24 69 -76 102 -114z m-7320 -70 l83 -210 -741 -3 c-407 -1 -741 -1 -743
0 -1 2 32 91 75 198 43 107 80 203 84 213 6 16 41 17 583 15 l577 -3 82 -210z
m1820 78 c46 -35 45 -35 120 -88 39 -27 76 -55 83 -62 7 -7 25 -20 41 -29 16
-9 35 -28 44 -43 8 -14 25 -36 37 -48 l21 -23 -246 0 -246 0 25 43 c32 54 56
154 56 236 0 59 1 62 18 50 9 -7 31 -24 47 -36z m16871 -254 l24 -39 -49 0
-49 0 14 38 c7 20 14 53 14 72 l2 35 9 -34 c6 -18 21 -51 35 -72z m704 -30 c0
-5 -7 -9 -15 -9 -9 0 -12 6 -9 15 6 15 24 11 24 -6z"/>
<path d="M16445 11178 c-3 -7 -4 -220 -3 -473 l3 -460 280 -3 c368 -4 800 12
885 33 121 29 202 95 254 204 l31 66 0 175 c0 209 -9 243 -86 315 -137 128
-307 153 -1037 155 -249 0 -324 -3 -327 -12z"/>
<path d="M14172 11130 c-5 -14 -132 -326 -282 -695 -150 -368 -275 -676 -277
-682 -4 -10 114 -13 571 -13 317 0 576 1 576 3 0 1 -130 319 -289 707 -250
607 -291 701 -299 680z m198 -790 c100 -245 185 -451 187 -457 4 -10 -74 -13
-371 -13 -207 0 -376 2 -376 5 0 3 79 200 176 438 97 237 180 443 185 456 5
13 11 22 13 20 2 -2 86 -204 186 -449z"/>
</g>
</svg>
